<svg width="25" height="25" viewBox="0 0 25 25" fill="none" xmlns="http://www.w3.org/2000/svg">
<path fill-rule="evenodd" clip-rule="evenodd" d="M15.6251 0.63485V2.44146C12.6537 2.44146 10.2032 2.26969 7.48649 3.62905C7.12129 3.8118 6.80312 3.9606 6.46077 4.16584C5.75191 4.59089 4.79025 5.23707 4.21208 5.8234C4.05884 5.9788 3.95124 6.03332 3.79548 6.18806C3.09916 6.87977 2.26213 8.00354 1.76055 8.84063C0.60936 10.7618 0 12.9235 0 15.4786C0 16.0392 1.05654 16.5789 1.49317 15.5069C2.31947 13.4782 3.83525 11.6397 5.55933 10.3445C7.55426 8.84591 10.0884 7.81252 13.5742 7.81252H15.625V9.61919C15.625 10.1007 16.349 10.5345 16.8828 10.0469C17.0136 9.92746 17.1241 9.85645 17.2491 9.72966L21.0567 6.31071C21.1925 6.19112 21.2557 6.09474 21.4073 5.97766C21.8694 5.62086 21.9726 5.51722 21.9726 5.02932C21.9726 4.67606 21.6139 4.46038 21.4011 4.28249C21.275 4.17705 21.2055 4.07491 21.0793 3.96947C20.9188 3.83525 20.8661 3.8016 20.716 3.64926L17.9315 1.16024C17.6871 0.933772 16.8134 0 16.4551 0C15.9811 0 15.625 0.237806 15.625 0.63479L15.6251 0.63485Z" fill="#F6FF5F"/>
<path fill-rule="evenodd" clip-rule="evenodd" d="M11.3281 17.1877H9.37494V15.3811C9.37494 14.8996 8.65091 14.4658 8.11712 14.9534C7.98631 15.0729 7.87577 15.1439 7.75078 15.2707C7.60996 15.4135 7.56761 15.447 7.41455 15.5692L6.7262 16.1992C6.5822 16.3466 6.49949 16.3857 6.35921 16.5158L4.65048 18.0785C4.5027 18.2087 4.43169 18.2462 4.28487 18.3964L3.59268 19.0226C3.13056 19.3794 3.02734 19.483 3.02734 19.9709C3.02734 20.3241 3.38612 20.5399 3.59886 20.7178C3.72499 20.8232 3.7945 20.9253 3.92063 21.0308C4.57191 21.5753 5.43701 22.4338 6.01309 22.8934L8.09271 24.7689C8.23521 24.9077 8.39121 24.9791 8.54379 25.0003H8.74297C9.08945 24.9528 9.37494 24.6655 9.37494 24.3655V22.5589C12.3506 22.5589 14.7946 22.7317 17.5136 21.3713C17.8867 21.1846 18.1793 21.0284 18.5379 20.8331C19.0715 20.5424 19.9199 19.9485 20.3738 19.5441L21.2047 18.8125L22.6273 17.1101C24.1805 14.8626 24.9999 12.5268 24.9999 9.52174C24.9999 8.97704 23.9496 8.39185 23.4931 9.52852C23.3625 9.85353 23.2192 10.1038 23.0631 10.4169C22.7711 11.0026 22.4275 11.5355 22.0494 12.0399C21.56 12.6928 21.5046 12.6848 21.1569 13.1006C21.0243 13.2592 20.9862 13.3162 20.8376 13.4648L19.4127 14.6767C17.047 16.4546 14.4016 17.1877 11.3281 17.1877H11.3281Z" fill="#F6FF5F"/>
</svg>
