<?xml version="1.0" encoding="UTF-8"?>
<svg id="_Слой_1" data-name="Слой 1" xmlns="http://www.w3.org/2000/svg" viewBox="0 0 241.61 159.07">
  <defs>
    <style>
      .cls-1 {
        fill: #fff;
        stroke-width: 0px;
      }
    </style>
  </defs>
  <polygon class="cls-1" points="96.65 38.29 96.59 38.35 96.59 38.23 0 38.23 0 72.35 62.57 72.35 .06 134.88 24.19 159 120.78 62.42 96.65 38.29"/>
  <polygon class="cls-1" points="179.04 86.64 241.55 24.13 217.41 0 154.96 62.45 154.96 .01 120.84 .01 120.84 62.48 154.93 62.48 120.82 96.59 86.7 96.59 86.7 159.07 120.84 159.07 120.84 96.59 144.96 120.72 145.03 120.66 145.03 120.78 241.61 120.78 241.61 86.64 179.04 86.64"/>
  <path class="cls-1" d="M232.43,143.42c.81-.72,1.26-1.77,1.21-2.85.05-1.24-.49-2.43-1.46-3.2-1.28-.89-2.82-1.32-4.38-1.23h-8.69v14.61h2.92v-5.13h5.52c.71-.06,1.43.13,2.02.54.44.4.67.97.63,1.56v3.02h2.92v-2.92c.05-.91-.31-1.79-.98-2.4-.85-.61-1.88-.91-2.92-.85v-.13c1.16.05,2.3-.32,3.21-1.04ZM227.39,143.53h-5.46v-4.88h5.46c.84-.06,1.68.17,2.37.66.98.87,1.08,2.38.2,3.36-.06.07-.13.14-.2.2-.69.48-1.53.72-2.37.66Z"/>
  <path class="cls-1" d="M226.02,127.82h-.03c-8.62-.03-15.63,6.93-15.66,15.54-.03,8.62,6.93,15.63,15.54,15.66,8.62.03,15.63-6.93,15.66-15.54v-.06c.02-8.59-6.92-15.58-15.51-15.6ZM237.28,152.22c0,1.36-1.11,2.47-2.47,2.47h-17.68c-1.36,0-2.48-1.09-2.48-2.45h0v-17.69c0-1.37,1.12-2.47,2.48-2.47h17.66c1.37,0,2.48,1.1,2.48,2.47v17.68Z"/>
</svg>